{"title":"Dinner for Schmucks --Hogs","uid":5735919,"size":1496787722,"categoryP":"other","categoryS":"other","magnet":"?xt=urn:btih:4c27efa583e7b2f5f5635ec3ce18c0bf5f8369d0&amp;dn=Dinner+for+Schmucks+--Hogs&amp;tr=udp%3A%2F%2Ftracker.openbittorrent.com%3A80&amp;tr=udp%3A%2F%2Fopen.demonii.com%3A1337&amp;tr=udp%3A%2F%2Ftracker.coppersurfer.tk%3A6969&amp;tr=udp%3A%2F%2Fexodus.desync.com%3A6969","seeders":1,"leechers":0,"uploader":"hiest","files":4,"time":1280816926,"description":"Tim (Rudd) is a rising executive who &quot;succeeds&quot; in finding the perfect guest, IRS employee Barry (Carell), for his boss monthly event, a so-called &quot;dinner for idiots,&quot; which offers certain advantages to the exec who shows up with the biggest buffoon.\n\n\n &lt;a href=&quot;\nhttp://www.imdb.com/title/tt0427152/&quot; rel=&quot;nofollow&quot; target=&quot;_NEW&quot;&gt;\nhttp://www.imdb.com/title/tt0427152/&lt;/a&gt;\nMOVIEmeter: Up 442% in popularity this week\nUser Rating:6.4/10\nGenre:Comedy\n\n\n\nVideo\nFormat : MPEG-4 Visual\nFormat profile : Advanced Simple@L5\nFormat settings, BVOP : Yes\nFormat settings, QPel : No\nFormat settings, GMC : No warppoints\nFormat settings, Matrix : Default (H.263)\nMuxing mode : Packed bitstream\nCodec ID : XVID\nCodec ID/Hint : XviD\nDuration : 1h 49mn\nBit rate : 1 540 Kbps\nWidth : 720 pixels\nHeight : 408 pixels\nDisplay aspect ratio : 16:9\nFrame rate : 30.000 fps\nColor space : YUV\nChroma subsampling : 4:2:0\nBit depth : 8 bits\nScan type : Progressive\nBits/(Pixel*Frame) : 0.175\nStream size : 1.17 GiB (85)\nWriting library : XviD 1.2.1 (UTC 2008-12-04)\n\nAudio\nFormat : MPEG Audio\nFormat version : Version 1\nFormat profile : Layer 3\nMode : Joint stereo\nCodec ID : 55\nCodec ID/Hint : MP3\nDuration : 1h 49mn\nBit rate mode : Constant\nBit rate : 256 Kbps\nChannel(s) : 2 channels\nSampling rate : 48.0 KHz\nStream size : 200 MiB (14)\nAlignment : Split accross interleaves\nInterleave, duration : 33 ms (1.00 video frame)\nInterleave, preload duration : 500 ms\n\n\n\nScreenshots:\n &lt;a href=&quot;\nhttp://postimg.com/image/19000/18991.jpg&quot; rel=&quot;nofollow&quot; target=&quot;_NEW&quot;&gt;\nhttp://postimg.com/image/19000/18991.jpg&lt;/a&gt;","torrent":{"xt":"urn:btih:4c27efa583e7b2f5f5635ec3ce18c0bf5f8369d0","amp;dn":"Dinner+for+Schmucks+--Hogs","amp;tr":["udp%3A%2F%2Ftracker.openbittorrent.com%3A80","udp%3A%2F%2Fopen.demonii.com%3A1337","udp%3A%2F%2Ftracker.coppersurfer.tk%3A6969","udp%3A%2F%2Fexodus.desync.com%3A6969"],"infoHash":"4c27efa583e7b2f5f5635ec3ce18c0bf5f8369d0","infoHashBuffer":{"type":"Buffer","data":[76,39,239,165,131,231,178,245,245,99,94,195,206,24,192,191,95,131,105,208]},"announce":[],"urlList":[]}}